<svg width="36" height="36" viewBox="0 0 36 36" fill="none" xmlns="http://www.w3.org/2000/svg">
<g clip-path="url(#clip0_177_345)">
<path d="M18 31.3505L25.425 23.9255C26.8934 22.457 27.8933 20.5861 28.2983 18.5493C28.7034 16.5125 28.4954 14.4014 27.7006 12.4828C26.9059 10.5643 25.5601 8.92445 23.8334 7.77075C22.1067 6.61704 20.0767 6.00125 18 6.00125C15.9233 6.00125 13.8933 6.61704 12.1666 7.77075C10.4399 8.92445 9.09413 10.5643 8.29937 12.4828C7.50462 14.4014 7.29662 16.5125 7.70168 18.5493C8.10674 20.5861 9.10666 22.457 10.575 23.9255L18 31.3505ZM18 35.5925L8.45401 26.0465C6.56601 24.1585 5.28028 21.753 4.75939 19.1343C4.23851 16.5155 4.50586 13.8011 5.52765 11.3343C6.54944 8.86755 8.27977 6.75915 10.4998 5.27576C12.7199 3.79237 15.33 3.00061 18 3.00061C20.67 3.00061 23.2801 3.79237 25.5002 5.27576C27.7202 6.75915 29.4506 8.86755 30.4724 11.3343C31.4942 13.8011 31.7615 16.5155 31.2406 19.1343C30.7197 21.753 29.434 24.1585 27.546 26.0465L18 35.5925ZM18 19.5005C18.7957 19.5005 19.5587 19.1844 20.1213 18.6218C20.6839 18.0592 21 17.2961 21 16.5005C21 15.7048 20.6839 14.9418 20.1213 14.3792C19.5587 13.8166 18.7957 13.5005 18 13.5005C17.2044 13.5005 16.4413 13.8166 15.8787 14.3792C15.3161 14.9418 15 15.7048 15 16.5005C15 17.2961 15.3161 18.0592 15.8787 18.6218C16.4413 19.1844 17.2044 19.5005 18 19.5005ZM18 22.5005C16.4087 22.5005 14.8826 21.8684 13.7574 20.7431C12.6321 19.6179 12 18.0918 12 16.5005C12 14.9092 12.6321 13.3831 13.7574 12.2579C14.8826 11.1326 16.4087 10.5005 18 10.5005C19.5913 10.5005 21.1174 11.1326 22.2426 12.2579C23.3679 13.3831 24 14.9092 24 16.5005C24 18.0918 23.3679 19.6179 22.2426 20.7431C21.1174 21.8684 19.5913 22.5005 18 22.5005Z" fill="#0084FF"/>
</g>
<defs>
<clipPath id="clip0_177_345">
<rect width="36" height="36" fill="white"/>
</clipPath>
</defs>
</svg>
