<svg width="14" height="14" viewBox="0 0 14 14" fill="none" xmlns="http://www.w3.org/2000/svg">
<g clip-path="url(#clip0_92_80)">
<path d="M5.24999 1.1665H8.74999M6.99999 5.83317V8.1665M6.99999 12.8332C8.23767 12.8332 9.42466 12.3415 10.2998 11.4663C11.175 10.5912 11.6667 9.40418 11.6667 8.1665C11.6667 6.92883 11.175 5.74184 10.2998 4.86667C9.42466 3.9915 8.23767 3.49984 6.99999 3.49984C5.76232 3.49984 4.57533 3.9915 3.70016 4.86667C2.82499 5.74184 2.33333 6.92883 2.33333 8.1665C2.33333 9.40418 2.82499 10.5912 3.70016 11.4663C4.57533 12.3415 5.76232 12.8332 6.99999 12.8332Z" stroke="white" stroke-width="1.2" stroke-linecap="round" stroke-linejoin="round"/>
</g>
<defs>
<clipPath id="clip0_92_80">
<rect width="14" height="14" fill="white"/>
</clipPath>
</defs>
</svg>
