<svg width="104" height="18" viewBox="0 0 104 18" fill="none" xmlns="http://www.w3.org/2000/svg">
<g clip-path="url(#clip0_93_138)">
<path d="M9 13.695L3.71025 16.656L4.8915 10.71L0.440247 6.594L6.4605 5.88L9 0.375L11.5395 5.88L17.5597 6.594L13.1085 10.71L14.2897 16.656L9 13.695Z" fill="#FFB800"/>
</g>
<g clip-path="url(#clip1_93_138)">
<path d="M30.375 13.695L25.0852 16.656L26.2665 10.71L21.8152 6.594L27.8355 5.88L30.375 0.375L32.9145 5.88L38.9347 6.594L34.4835 10.71L35.6647 16.656L30.375 13.695Z" fill="#FFB800"/>
</g>
<g clip-path="url(#clip2_93_138)">
<path d="M51.75 13.695L46.4602 16.656L47.6415 10.71L43.1902 6.594L49.2105 5.88L51.75 0.375L54.2895 5.88L60.3097 6.594L55.8585 10.71L57.0397 16.656L51.75 13.695Z" fill="#FFB800"/>
</g>
<g clip-path="url(#clip3_93_138)">
<path d="M73.125 13.695L67.8352 16.656L69.0165 10.71L64.5652 6.594L70.5855 5.88L73.125 0.375L75.6645 5.88L81.6847 6.594L77.2335 10.71L78.4147 16.656L73.125 13.695Z" fill="#FFB800"/>
</g>
<g clip-path="url(#clip4_93_138)">
<path d="M94.5 13.695L89.2102 16.656L90.3915 10.71L85.9402 6.594L91.9605 5.88L94.5 0.375L97.0395 5.88L103.06 6.594L98.6085 10.71L99.7897 16.656L94.5 13.695Z" fill="#FFB800"/>
</g>
<defs>
<clipPath id="clip0_93_138">
<rect width="18" height="18" fill="white"/>
</clipPath>
<clipPath id="clip1_93_138">
<rect width="18" height="18" fill="white" transform="translate(21.375)"/>
</clipPath>
<clipPath id="clip2_93_138">
<rect width="18" height="18" fill="white" transform="translate(42.75)"/>
</clipPath>
<clipPath id="clip3_93_138">
<rect width="18" height="18" fill="white" transform="translate(64.125)"/>
</clipPath>
<clipPath id="clip4_93_138">
<rect width="18" height="18" fill="white" transform="translate(85.5)"/>
</clipPath>
</defs>
</svg>
