<svg width="64" height="64" viewBox="0 0 64 64" fill="none" xmlns="http://www.w3.org/2000/svg">
<g clip-path="url(#clip0_91_23)">
<path d="M53.3334 29.3333C52.6812 24.6406 50.5042 20.2924 47.1377 16.9587C43.7712 13.6249 39.402 11.4904 34.7031 10.8841C30.0042 10.2778 25.2363 11.2333 21.1339 13.6033C17.0314 15.9734 13.822 19.6265 12 24M10.6667 13.3333V24H21.3334" stroke="url(#paint0_linear_91_23)" stroke-width="3" stroke-linecap="round" stroke-linejoin="round"/>
<path d="M10.6667 34.6667C11.4312 40.182 14.2975 45.1885 18.6667 48.64" stroke="url(#paint1_linear_91_23)" stroke-width="3" stroke-linecap="round" stroke-linejoin="round"/>
<path d="M29.3333 40H34.6666C35.3739 40 36.0522 40.281 36.5523 40.781C37.0524 41.2811 37.3333 41.9594 37.3333 42.6667V45.3333C37.3333 46.0406 37.0524 46.7189 36.5523 47.219C36.0522 47.7191 35.3739 48 34.6666 48H32C31.2927 48 30.6145 48.2809 30.1144 48.781C29.6143 49.2811 29.3333 49.9594 29.3333 50.6667V53.3333C29.3333 54.0406 29.6143 54.7189 30.1144 55.219C30.6145 55.7191 31.2927 56 32 56H37.3333" stroke="url(#paint2_linear_91_23)" stroke-width="3" stroke-linecap="round" stroke-linejoin="round"/>
<path d="M45.3333 40V45.3333C45.3333 46.0406 45.6143 46.7189 46.1144 47.219C46.6145 47.7191 47.2927 48 48 48H50.6666" stroke="url(#paint3_linear_91_23)" stroke-width="3" stroke-linecap="round" stroke-linejoin="round"/>
<path d="M53.3333 40V56" stroke="url(#paint4_linear_91_23)" stroke-width="3" stroke-linecap="round" stroke-linejoin="round"/>
</g>
<defs>
<linearGradient id="paint0_linear_91_23" x1="32" y1="10.7065" x2="32" y2="29.3333" gradientUnits="userSpaceOnUse">
<stop stop-color="#00CDFF"/>
<stop offset="1" stop-color="#295CFF"/>
</linearGradient>
<linearGradient id="paint1_linear_91_23" x1="14.6667" y1="34.6667" x2="14.6667" y2="48.64" gradientUnits="userSpaceOnUse">
<stop stop-color="#00CDFF"/>
<stop offset="1" stop-color="#295CFF"/>
</linearGradient>
<linearGradient id="paint2_linear_91_23" x1="33.3333" y1="40" x2="33.3333" y2="56" gradientUnits="userSpaceOnUse">
<stop stop-color="#00CDFF"/>
<stop offset="1" stop-color="#295CFF"/>
</linearGradient>
<linearGradient id="paint3_linear_91_23" x1="48" y1="40" x2="48" y2="48" gradientUnits="userSpaceOnUse">
<stop stop-color="#00CDFF"/>
<stop offset="1" stop-color="#295CFF"/>
</linearGradient>
<linearGradient id="paint4_linear_91_23" x1="53.8333" y1="40" x2="53.8333" y2="56" gradientUnits="userSpaceOnUse">
<stop stop-color="#00CDFF"/>
<stop offset="1" stop-color="#295CFF"/>
</linearGradient>
<clipPath id="clip0_91_23">
<rect width="64" height="64" fill="white"/>
</clipPath>
</defs>
</svg>
